<svg id="Layer_1" data-name="Layer 1" xmlns="http://www.w3.org/2000/svg" viewBox="0 0 32 32"><path d="M21,22H15a2,2,0,0,1,1.66,2.22,2,2,0,0,1-4,0A2.05,2.05,0,0,1,14.31,22H12.84a2,2,0,0,1-2-1.56A1.86,1.86,0,0,1,11.09,19a1,1,0,0,0,.08-.87q-1.53-5.31-3-10.62a1.67,1.67,0,0,1-.06-.2H5.37A.67.67,0,1,1,5.37,6H8.48a.7.7,0,0,1,.77.59c.2.69.39,1.38.59,2.08h16.7a1.61,1.61,0,0,1,.31,0,.67.67,0,0,1,.48.93l-1.44,5-1.17,4.09a.69.69,0,0,1-.79.59c-3.74,0-7.49,0-11.24,0a.37.37,0,0,0-.4.25c-.29.62,0,1.09.67,1.09H23.89a1.38,1.38,0,0,1,.29,0,.67.67,0,0,1,.53.72.66.66,0,0,1-.66.6c-.68,0-1.37,0-2.06,0h-.25a2.07,2.07,0,0,1,1.29.86,1.94,1.94,0,0,1,.31,1.53,2,2,0,0,1-3.95-.2A2,2,0,0,1,21,22Z"/></svg>